<svg xmlns="http://www.w3.org/2000/svg" xmlns:xlink="http://www.w3.org/1999/xlink" width="500" zoomAndPan="magnify" viewBox="0 0 375 374.999991" height="500" preserveAspectRatio="xMidYMid meet" version="1.0"><defs><clipPath id="d2f5df2f7d"><path d="M 314 214 L 369.375 214 L 369.375 277 L 314 277 Z M 314 214 " clip-rule="nonzero"/></clipPath><clipPath id="1cd465d335"><path d="M 5.625 95 L 61 95 L 61 159 L 5.625 159 Z M 5.625 95 " clip-rule="nonzero"/></clipPath><clipPath id="472b1d216a"><path d="M 76.847656 86.882812 L 298.152344 86.882812 L 298.152344 308.1875 L 76.847656 308.1875 Z M 76.847656 86.882812 " clip-rule="nonzero"/></clipPath><clipPath id="291ab2fda1"><path d="M 187.5 86.882812 C 126.390625 86.882812 76.847656 136.425781 76.847656 197.535156 C 76.847656 258.644531 126.390625 308.1875 187.5 308.1875 C 248.609375 308.1875 298.152344 258.644531 298.152344 197.535156 C 298.152344 136.425781 248.609375 86.882812 187.5 86.882812 Z M 187.5 86.882812 " clip-rule="nonzero"/></clipPath><clipPath id="ee9e50f3b0"><path d="M 0.847656 0.882812 L 222.152344 0.882812 L 222.152344 222.1875 L 0.847656 222.1875 Z M 0.847656 0.882812 " clip-rule="nonzero"/></clipPath><clipPath id="eac3f6dc8a"><path d="M 111.5 0.882812 C 50.390625 0.882812 0.847656 50.425781 0.847656 111.535156 C 0.847656 172.644531 50.390625 222.1875 111.5 222.1875 C 172.609375 222.1875 222.152344 172.644531 222.152344 111.535156 C 222.152344 50.425781 172.609375 0.882812 111.5 0.882812 Z M 111.5 0.882812 " clip-rule="nonzero"/></clipPath><clipPath id="2e4c5db0cc"><rect x="0" width="223" y="0" height="223"/></clipPath><clipPath id="3f49621bad"><path d="M 232 62.988281 L 275 62.988281 L 275 106 L 232 106 Z M 232 62.988281 " clip-rule="nonzero"/></clipPath><clipPath id="3d7e28bd6e"><path d="M 79.796875 210 L 295.046875 210 L 295.046875 311.988281 L 79.796875 311.988281 Z M 79.796875 210 " clip-rule="nonzero"/></clipPath><clipPath id="5f597f4925"><path d="M 212 210 L 295.046875 210 L 295.046875 289 L 212 289 Z M 212 210 " clip-rule="nonzero"/></clipPath></defs><rect x="-37.5" width="450" fill="#ffffff" y="-37.499999" height="449.999989" fill-opacity="1"/><rect x="-37.5" width="450" fill="#ffffff" y="-37.499999" height="449.999989" fill-opacity="1"/><path fill="#39b54a" d="M 56.054688 78.839844 L 75.855469 90.265625 C 97.28125 65.535156 126.730469 47.9375 160.105469 41.523438 L 160.105469 18.667969 C 118.449219 25.574219 81.824219 47.578125 56.054688 78.828125 Z M 348.589844 127.511719 L 328.808594 138.9375 C 334.105469 154.203125 336.988281 170.582031 336.988281 187.621094 C 336.988281 204.660156 334.105469 221.039062 328.808594 236.292969 L 348.589844 247.71875 C 355.628906 229.015625 359.476562 208.75 359.476562 187.621094 C 359.476562 166.492188 355.628906 146.214844 348.589844 127.511719 Z M 216.355469 18.667969 L 216.355469 41.523438 C 249.726562 47.9375 279.175781 65.546875 300.621094 90.265625 L 320.40625 78.847656 C 294.644531 47.578125 258.011719 25.582031 216.355469 18.667969 Z M 75.855469 284.976562 L 56.074219 296.394531 C 81.832031 327.65625 118.457031 349.660156 160.113281 356.566406 L 160.113281 333.707031 C 126.742188 327.292969 97.300781 309.695312 75.863281 284.976562 Z M 27.871094 127.511719 C 20.832031 146.214844 16.984375 166.480469 16.984375 187.621094 C 16.984375 208.761719 20.832031 229.023438 27.871094 247.738281 L 47.652344 236.3125 C 42.351562 221.050781 39.472656 204.667969 39.472656 187.628906 C 39.472656 170.589844 42.351562 154.210938 47.660156 138.945312 L 27.859375 127.523438 Z M 300.605469 284.96875 C 279.175781 309.695312 249.726562 327.292969 216.355469 333.707031 L 216.355469 356.566406 C 258.011719 349.660156 294.636719 327.65625 320.40625 296.394531 Z M 300.605469 284.96875 " fill-opacity="1" fill-rule="nonzero"/><path fill="#39b54a" d="M 145.4375 -0.0195312 L 201.324219 27.253906 L 149.757812 62.011719 Z M 145.4375 -0.0195312 " fill-opacity="1" fill-rule="nonzero"/><path fill="#39b54a" d="M 332.527344 57.179688 L 332.351562 119.371094 L 278.582031 88.125 Z M 332.527344 57.179688 " fill-opacity="1" fill-rule="nonzero"/><g clip-path="url(#d2f5df2f7d)"><path fill="#39b54a" d="M 369.246094 247.328125 L 314.484375 276.796875 L 316.351562 214.636719 Z M 369.246094 247.328125 " fill-opacity="1" fill-rule="nonzero"/></g><path fill="#39b54a" d="M 231.433594 312.835938 L 232.335938 375.019531 L 178.046875 344.714844 Z M 231.433594 312.835938 " fill-opacity="1" fill-rule="nonzero"/><path fill="#39b54a" d="M 102.171875 287.164062 L 49.648438 320.46875 L 47.074219 258.335938 Z M 102.171875 287.164062 " fill-opacity="1" fill-rule="nonzero"/><g clip-path="url(#1cd465d335)"><path fill="#39b54a" d="M 60.871094 158.078125 L 5.753906 129.261719 L 58.257812 95.945312 Z M 60.871094 158.078125 " fill-opacity="1" fill-rule="nonzero"/></g><path fill="#39b54a" d="M 245.710938 218.1875 C 239.660156 212.542969 232 207.476562 223.476562 206.277344 L 227.722656 200.105469 C 228.113281 199.351562 227.089844 198.671875 226.550781 199.332031 L 220.992188 206.074219 C 212.8125 205.878906 204.53125 210.21875 198.125 214.773438 C 197.699219 213.789062 197.429688 212.703125 197.398438 211.519531 C 197.398438 211.519531 194.75 188.179688 211.277344 170.582031 C 227.796875 152.984375 264.40625 148.492188 264.40625 148.492188 C 264.40625 148.492188 253.566406 163.105469 255.453125 170.246094 C 257.339844 177.375 260.277344 200.914062 249.078125 214.859375 C 248.082031 216.09375 246.957031 217.199219 245.730469 218.195312 Z M 245.710938 218.1875 " fill-opacity="1" fill-rule="nonzero"/><path fill="#39b54a" d="M 188.671875 249.558594 C 188.671875 249.558594 204.308594 267.082031 228.449219 266.488281 C 252.582031 265.894531 280.320312 241.585938 280.320312 241.585938 C 280.320312 241.585938 262.203125 239.929688 258.140625 233.765625 C 254.078125 227.601562 238.488281 209.734375 220.621094 208.796875 C 202.753906 207.859375 185.4375 230.484375 185.4375 230.484375 L 217.40625 234.539062 C 218.234375 234.75 218.046875 235.96875 217.199219 235.933594 L 170.785156 234.089844 C 170.164062 234.0625 169.625 234.539062 169.558594 235.160156 C 169.492188 235.839844 170.015625 236.433594 170.691406 236.460938 L 186.207031 237 C 186.207031 237 183.929688 245.105469 188.691406 249.570312 Z M 188.671875 249.558594 " fill-opacity="1" fill-rule="nonzero"/><path fill="#fac03a" d="M 159.425781 177.589844 L 181.085938 98.203125 L 94.6875 186.765625 L 133.574219 197.417969 L 111.914062 276.796875 L 198.3125 188.234375 Z M 159.425781 177.589844 " fill-opacity="1" fill-rule="nonzero"/><g clip-path="url(#472b1d216a)"><g clip-path="url(#291ab2fda1)"><g transform="matrix(1, 0, 0, 1, 76, 86)"><g clip-path="url(#2e4c5db0cc)"><g clip-path="url(#ee9e50f3b0)"><g clip-path="url(#eac3f6dc8a)"><path fill="#ffffff" d="M 0.847656 0.882812 L 222.152344 0.882812 L 222.152344 222.1875 L 0.847656 222.1875 Z M 0.847656 0.882812 " fill-opacity="1" fill-rule="nonzero"/></g></g></g></g></g></g><path fill="#d1c4c4" d="M 235.558594 149.484375 L 235.558594 152.804688 L 233.78125 152.804688 L 233.78125 149.484375 Z M 235.558594 149.484375 " fill-opacity="1" fill-rule="evenodd"/><path fill="#00ae01" d="M 237.878906 220.078125 L 231.460938 220.078125 L 233.066406 151.824219 L 236.273438 151.824219 Z M 237.878906 220.078125 " fill-opacity="1" fill-rule="evenodd"/><path fill="#733b2a" d="M 128.855469 191.898438 L 130.765625 191.898438 L 130.765625 215.988281 L 128.855469 215.988281 Z M 128.855469 191.898438 " fill-opacity="1" fill-rule="evenodd"/><path fill="#733b2a" d="M 109.238281 181.015625 L 112.265625 181.015625 L 112.265625 215.871094 L 109.238281 215.871094 Z M 109.238281 181.015625 " fill-opacity="1" fill-rule="evenodd"/><path fill="#00ae01" d="M 170.09375 211.863281 C 170.09375 211.863281 169.925781 194.566406 181.597656 204.382812 C 181.597656 204.382812 185.023438 199.476562 188.609375 203.914062 C 188.609375 203.914062 192.417969 197.800781 198.566406 203.019531 C 198.566406 203.019531 212.890625 194.683594 213.097656 212.617188 Z M 170.09375 211.863281 " fill-opacity="1" fill-rule="evenodd"/><path fill="#d3ef0a" d="M 85.222656 211.484375 C 85.222656 211.484375 83.054688 201.992188 94.386719 203.667969 C 94.386719 203.667969 94.855469 195.464844 103.65625 198.457031 C 103.65625 198.457031 108.152344 189.1875 114.691406 198.820312 C 114.691406 198.820312 123.3125 196.828125 127.3125 205.328125 C 127.3125 205.328125 140.230469 203.429688 136.738281 212.683594 Z M 85.222656 211.484375 " fill-opacity="1" fill-rule="evenodd"/><path fill="#61a904" d="M 127.921875 97.667969 C 127.921875 99.609375 126.347656 101.183594 124.40625 101.183594 L 109.554688 101.183594 C 107.613281 101.183594 106.042969 99.609375 106.042969 97.667969 C 106.042969 95.726562 107.613281 94.152344 109.554688 94.152344 L 124.40625 94.152344 C 126.347656 94.152344 127.921875 95.726562 127.921875 97.667969 Z M 127.921875 97.667969 " fill-opacity="1" fill-rule="evenodd"/><path fill="#61a904" d="M 219.644531 90.039062 C 219.644531 94.214844 216.253906 97.605469 212.082031 97.605469 L 189.121094 97.605469 C 184.949219 97.605469 181.5625 94.214844 181.5625 90.039062 C 181.5625 85.863281 184.949219 82.472656 189.121094 82.472656 L 212.082031 82.472656 C 216.253906 82.472656 219.644531 85.863281 219.644531 90.039062 Z M 219.644531 90.039062 " fill-opacity="1" fill-rule="evenodd"/><g clip-path="url(#3f49621bad)"><path fill="#d3ef0a" d="M 274.640625 84.289062 C 274.640625 84.984375 274.605469 85.683594 274.539062 86.378906 C 274.46875 87.074219 274.367188 87.761719 274.230469 88.449219 C 274.09375 89.132812 273.925781 89.8125 273.722656 90.480469 C 273.519531 91.148438 273.285156 91.804688 273.015625 92.449219 C 272.75 93.097656 272.453125 93.726562 272.121094 94.34375 C 271.792969 94.960938 271.433594 95.558594 271.046875 96.140625 C 270.660156 96.71875 270.242188 97.28125 269.800781 97.820312 C 269.359375 98.359375 268.890625 98.878906 268.394531 99.371094 C 267.902344 99.867188 267.386719 100.335938 266.84375 100.777344 C 266.304688 101.21875 265.746094 101.636719 265.164062 102.023438 C 264.585938 102.414062 263.984375 102.769531 263.371094 103.101562 C 262.753906 103.429688 262.125 103.726562 261.480469 103.996094 C 260.835938 104.261719 260.175781 104.5 259.507812 104.699219 C 258.839844 104.902344 258.164062 105.074219 257.480469 105.210938 C 256.796875 105.347656 256.105469 105.449219 255.410156 105.515625 C 254.714844 105.585938 254.019531 105.621094 253.320312 105.621094 C 252.621094 105.621094 251.925781 105.585938 251.230469 105.515625 C 250.535156 105.449219 249.847656 105.347656 249.160156 105.210938 C 248.476562 105.074219 247.800781 104.902344 247.132812 104.699219 C 246.464844 104.5 245.808594 104.261719 245.160156 103.996094 C 244.515625 103.726562 243.886719 103.429688 243.269531 103.101562 C 242.65625 102.769531 242.058594 102.414062 241.476562 102.023438 C 240.894531 101.636719 240.335938 101.21875 239.796875 100.777344 C 239.257812 100.335938 238.738281 99.867188 238.246094 99.371094 C 237.75 98.878906 237.285156 98.359375 236.839844 97.820312 C 236.398438 97.28125 235.980469 96.71875 235.59375 96.140625 C 235.207031 95.558594 234.847656 94.960938 234.519531 94.34375 C 234.1875 93.726562 233.890625 93.097656 233.625 92.449219 C 233.355469 91.804688 233.121094 91.148438 232.917969 90.480469 C 232.714844 89.8125 232.546875 89.132812 232.410156 88.449219 C 232.273438 87.761719 232.171875 87.074219 232.105469 86.378906 C 232.035156 85.683594 232 84.984375 232 84.289062 C 232 83.589844 232.035156 82.890625 232.105469 82.195312 C 232.171875 81.5 232.273438 80.8125 232.410156 80.125 C 232.546875 79.441406 232.714844 78.761719 232.917969 78.09375 C 233.121094 77.425781 233.355469 76.769531 233.625 76.125 C 233.890625 75.476562 234.1875 74.847656 234.519531 74.230469 C 234.847656 73.613281 235.207031 73.015625 235.59375 72.433594 C 235.980469 71.855469 236.398438 71.292969 236.839844 70.753906 C 237.285156 70.214844 237.75 69.695312 238.246094 69.203125 C 238.738281 68.707031 239.257812 68.238281 239.796875 67.796875 C 240.335938 67.355469 240.894531 66.9375 241.476562 66.550781 C 242.058594 66.160156 242.65625 65.804688 243.269531 65.472656 C 243.886719 65.144531 244.515625 64.847656 245.160156 64.578125 C 245.808594 64.3125 246.464844 64.074219 247.132812 63.875 C 247.800781 63.671875 248.476562 63.5 249.160156 63.363281 C 249.847656 63.226562 250.535156 63.125 251.230469 63.058594 C 251.925781 62.988281 252.621094 62.953125 253.320312 62.953125 C 254.019531 62.953125 254.714844 62.988281 255.410156 63.058594 C 256.105469 63.125 256.796875 63.226562 257.480469 63.363281 C 258.164062 63.5 258.839844 63.671875 259.507812 63.875 C 260.175781 64.074219 260.835938 64.3125 261.480469 64.578125 C 262.125 64.847656 262.753906 65.144531 263.371094 65.472656 C 263.984375 65.804688 264.585938 66.160156 265.164062 66.550781 C 265.746094 66.9375 266.304688 67.355469 266.84375 67.796875 C 267.386719 68.238281 267.902344 68.707031 268.394531 69.203125 C 268.890625 69.695312 269.359375 70.214844 269.800781 70.753906 C 270.242188 71.292969 270.660156 71.855469 271.046875 72.433594 C 271.433594 73.015625 271.792969 73.613281 272.121094 74.230469 C 272.453125 74.847656 272.75 75.476562 273.015625 76.125 C 273.285156 76.769531 273.519531 77.425781 273.722656 78.09375 C 273.925781 78.761719 274.09375 79.441406 274.230469 80.125 C 274.367188 80.8125 274.46875 81.5 274.539062 82.195312 C 274.605469 82.890625 274.640625 83.589844 274.640625 84.289062 Z M 274.640625 84.289062 " fill-opacity="1" fill-rule="nonzero"/></g><path fill="#61a904" d="M 120.144531 94.128906 C 120.144531 94.449219 120.113281 94.769531 120.050781 95.085938 C 119.988281 95.402344 119.894531 95.707031 119.773438 96.007812 C 119.648438 96.304688 119.5 96.585938 119.320312 96.855469 C 119.140625 97.121094 118.9375 97.371094 118.710938 97.597656 C 118.484375 97.824219 118.234375 98.027344 117.96875 98.207031 C 117.699219 98.386719 117.417969 98.539062 117.121094 98.660156 C 116.820312 98.785156 116.515625 98.878906 116.199219 98.941406 C 115.882812 99.003906 115.566406 99.035156 115.242188 99.035156 C 114.921875 99.035156 114.601562 99.003906 114.285156 98.941406 C 113.972656 98.878906 113.664062 98.785156 113.367188 98.660156 C 113.070312 98.539062 112.785156 98.386719 112.519531 98.207031 C 112.25 98.027344 112.003906 97.824219 111.777344 97.597656 C 111.546875 97.371094 111.34375 97.121094 111.167969 96.855469 C 110.988281 96.585938 110.835938 96.304688 110.714844 96.007812 C 110.589844 95.707031 110.496094 95.402344 110.433594 95.085938 C 110.371094 94.769531 110.339844 94.449219 110.339844 94.128906 C 110.339844 93.804688 110.371094 93.488281 110.433594 93.171875 C 110.496094 92.855469 110.589844 92.546875 110.714844 92.25 C 110.835938 91.953125 110.988281 91.671875 111.167969 91.402344 C 111.34375 91.136719 111.546875 90.886719 111.777344 90.660156 C 112.003906 90.429688 112.25 90.226562 112.519531 90.050781 C 112.785156 89.871094 113.070312 89.71875 113.367188 89.597656 C 113.664062 89.472656 113.972656 89.378906 114.285156 89.316406 C 114.601562 89.253906 114.921875 89.222656 115.242188 89.222656 C 115.566406 89.222656 115.882812 89.253906 116.199219 89.316406 C 116.515625 89.378906 116.820312 89.472656 117.121094 89.597656 C 117.417969 89.71875 117.699219 89.871094 117.96875 90.050781 C 118.234375 90.226562 118.484375 90.429688 118.710938 90.660156 C 118.9375 90.886719 119.140625 91.136719 119.320312 91.402344 C 119.5 91.671875 119.648438 91.953125 119.773438 92.25 C 119.894531 92.546875 119.988281 92.855469 120.050781 93.171875 C 120.113281 93.488281 120.144531 93.804688 120.144531 94.128906 Z M 120.144531 94.128906 " fill-opacity="1" fill-rule="nonzero"/><path fill="#61a904" d="M 206.113281 82.429688 C 206.113281 83.011719 206.058594 83.589844 205.949219 84.164062 C 205.839844 84.738281 205.675781 85.292969 205.464844 85.832031 C 205.25 86.371094 204.984375 86.882812 204.675781 87.371094 C 204.363281 87.855469 204.007812 88.304688 203.613281 88.71875 C 203.214844 89.128906 202.785156 89.5 202.320312 89.824219 C 201.855469 90.148438 201.363281 90.421875 200.84375 90.644531 C 200.328125 90.867188 199.792969 91.035156 199.242188 91.152344 C 198.695312 91.265625 198.136719 91.320312 197.578125 91.320312 C 197.019531 91.320312 196.460938 91.265625 195.914062 91.152344 C 195.363281 91.035156 194.828125 90.867188 194.3125 90.644531 C 193.792969 90.421875 193.300781 90.148438 192.835938 89.824219 C 192.371094 89.5 191.941406 89.128906 191.542969 88.71875 C 191.148438 88.304688 190.792969 87.855469 190.480469 87.371094 C 190.171875 86.882812 189.90625 86.371094 189.691406 85.832031 C 189.480469 85.292969 189.316406 84.738281 189.207031 84.164062 C 189.097656 83.589844 189.042969 83.011719 189.042969 82.429688 C 189.042969 81.84375 189.097656 81.265625 189.207031 80.695312 C 189.316406 80.121094 189.480469 79.566406 189.691406 79.027344 C 189.90625 78.488281 190.171875 77.976562 190.480469 77.488281 C 190.792969 77.003906 191.148438 76.554688 191.542969 76.140625 C 191.941406 75.730469 192.371094 75.359375 192.835938 75.035156 C 193.300781 74.710938 193.792969 74.4375 194.3125 74.214844 C 194.828125 73.992188 195.363281 73.824219 195.914062 73.707031 C 196.460938 73.59375 197.019531 73.539062 197.578125 73.539062 C 198.136719 73.539062 198.695312 73.59375 199.242188 73.707031 C 199.792969 73.824219 200.328125 73.992188 200.84375 74.214844 C 201.363281 74.4375 201.855469 74.710938 202.320312 75.035156 C 202.785156 75.359375 203.214844 75.730469 203.613281 76.140625 C 204.007812 76.554688 204.363281 77.003906 204.675781 77.488281 C 204.984375 77.976562 205.25 78.488281 205.464844 79.027344 C 205.675781 79.566406 205.839844 80.121094 205.949219 80.695312 C 206.058594 81.265625 206.113281 81.84375 206.113281 82.429688 Z M 206.113281 82.429688 " fill-opacity="1" fill-rule="nonzero"/><path fill="#61a904" d="M 215.675781 91.53125 C 215.675781 92.117188 215.621094 92.695312 215.511719 93.265625 C 215.402344 93.839844 215.242188 94.394531 215.027344 94.933594 C 214.8125 95.476562 214.550781 95.988281 214.238281 96.472656 C 213.925781 96.957031 213.574219 97.40625 213.175781 97.820312 C 212.78125 98.234375 212.351562 98.601562 211.882812 98.925781 C 211.417969 99.25 210.925781 99.523438 210.410156 99.746094 C 209.890625 99.972656 209.355469 100.140625 208.808594 100.253906 C 208.257812 100.367188 207.703125 100.425781 207.140625 100.425781 C 206.582031 100.425781 206.027344 100.367188 205.476562 100.253906 C 204.929688 100.140625 204.394531 99.972656 203.875 99.746094 C 203.359375 99.523438 202.867188 99.25 202.402344 98.925781 C 201.933594 98.601562 201.503906 98.234375 201.109375 97.820312 C 200.710938 97.40625 200.359375 96.957031 200.046875 96.472656 C 199.734375 95.988281 199.472656 95.476562 199.257812 94.933594 C 199.042969 94.394531 198.882812 93.839844 198.773438 93.265625 C 198.664062 92.695312 198.609375 92.117188 198.609375 91.53125 C 198.609375 90.949219 198.664062 90.371094 198.773438 89.796875 C 198.882812 89.226562 199.042969 88.667969 199.257812 88.128906 C 199.472656 87.589844 199.734375 87.078125 200.046875 86.59375 C 200.359375 86.105469 200.710938 85.65625 201.109375 85.246094 C 201.503906 84.832031 201.933594 84.464844 202.402344 84.140625 C 202.867188 83.816406 203.359375 83.542969 203.875 83.316406 C 204.394531 83.09375 204.929688 82.925781 205.476562 82.8125 C 206.027344 82.699219 206.582031 82.640625 207.140625 82.640625 C 207.703125 82.640625 208.257812 82.699219 208.808594 82.8125 C 209.355469 82.925781 209.890625 83.09375 210.410156 83.316406 C 210.925781 83.542969 211.417969 83.816406 211.882812 84.140625 C 212.351562 84.464844 212.78125 84.832031 213.175781 85.246094 C 213.574219 85.65625 213.925781 86.105469 214.238281 86.59375 C 214.550781 87.078125 214.8125 87.589844 215.027344 88.128906 C 215.242188 88.667969 215.402344 89.226562 215.511719 89.796875 C 215.621094 90.371094 215.675781 90.949219 215.675781 91.53125 Z M 215.675781 91.53125 " fill-opacity="1" fill-rule="nonzero"/><g clip-path="url(#3d7e28bd6e)"><path fill="#058200" d="M 79.949219 210.277344 L 295.042969 210.546875 C 294.972656 266.554688 246.765625 311.898438 187.371094 311.824219 C 127.972656 311.75 79.882812 266.285156 79.949219 210.277344 Z M 79.949219 210.277344 " fill-opacity="1" fill-rule="evenodd"/></g><path fill="#00ae01" d="M 124.242188 190.605469 C 124.164062 190.933594 124 196.410156 127.054688 197.085938 C 128.457031 197.394531 130.484375 197.074219 133.613281 194.089844 C 133.613281 194.089844 135.421875 194.777344 136.8125 193.882812 C 139.316406 192.269531 142.378906 187.101562 136.035156 184.789062 C 136.035156 184.789062 136.375 183.25 135.871094 181.949219 C 134.933594 179.527344 132.132812 176.183594 127.5 181.164062 C 124.371094 182.277344 122.855469 183.769531 122.386719 185.46875 C 121.964844 187.003906 122.328125 188.691406 124.242188 190.605469 Z M 124.242188 190.605469 " fill-opacity="1" fill-rule="evenodd"/><path fill="#00ae01" d="M 104.71875 162.421875 C 104.71875 162.421875 104.460938 160.9375 102.996094 159.554688 C 102.539062 159.121094 102.234375 158.808594 101.5625 158.410156 C 97.039062 155.730469 85.347656 157.25 89.351562 169.027344 C 89.96875 170.84375 91.429688 172.503906 93.253906 173.789062 C 93.253906 173.789062 90.890625 174.910156 90.433594 177.550781 C 89.824219 181.039062 91.117188 187.140625 98.46875 187.558594 C 100.21875 187.65625 102.917969 187.195312 104.523438 185.480469 C 105.542969 185.402344 113.183594 192.6875 117.882812 181.726562 C 117.902344 181.679688 122.878906 183.453125 126.003906 179.738281 C 129.757812 175.273438 130.96875 165.171875 120.210938 165.164062 C 118.984375 165.164062 117.644531 165.472656 116.140625 166.417969 C 113.136719 161.253906 110.003906 159.585938 104.71875 162.421875 Z M 104.71875 162.421875 " fill-opacity="1" fill-rule="evenodd"/><path fill="#61a900" d="M 116.546875 213.898438 C 116.382812 213.394531 116.261719 212.808594 116.179688 212.210938 C 116.085938 211.554688 116.03125 210.886719 116 210.320312 L 121.878906 210.328125 C 122.671875 210.941406 123.507812 211.570312 124.183594 212.078125 C 125.023438 212.710938 125.625 213.15625 125.625 213.15625 C 128.179688 212.222656 130.234375 212.402344 131.867188 213.136719 C 136.019531 215.011719 137.441406 220.496094 137.441406 220.496094 C 147.21875 213.984375 157.664062 231.507812 157.664062 231.507812 C 170.828125 228.441406 168.058594 234.183594 168.058594 234.183594 C 187.894531 241 174.171875 252.871094 174.171875 252.871094 C 176.304688 259.285156 166.941406 260.734375 166.941406 260.734375 C 166.683594 268.136719 151.289062 276.476562 151.289062 276.476562 C 166.847656 279.179688 154.511719 288.417969 154.511719 288.417969 C 149.472656 288.503906 136.226562 282.992188 136.226562 282.992188 C 130.878906 279.90625 132.625 272.566406 133.019531 265.847656 C 133.390625 259.523438 133.402344 254.183594 133.402344 254.183594 C 123.378906 250.308594 117.363281 241.5 121.535156 233.269531 C 115.195312 231.136719 118.300781 228.390625 118.300781 228.390625 C 130.867188 218.09375 117.015625 214.871094 117.015625 214.871094 C 116.828125 214.625 116.671875 214.289062 116.546875 213.898438 Z M 116.546875 213.898438 " fill-opacity="1" fill-rule="evenodd"/><g clip-path="url(#5f597f4925)"><path fill="#61a900" d="M 233.5 210.46875 L 263.730469 210.503906 C 263.652344 214.59375 268.757812 219.847656 268.757812 219.847656 L 274.425781 214.980469 C 279.691406 212.15625 283.160156 218.0625 283.160156 218.0625 C 283.675781 217.824219 283.464844 213.992188 283.164062 210.53125 L 295.042969 210.542969 C 295.019531 228.945312 289.800781 246.195312 280.695312 261.0625 C 280.386719 261.292969 280.070312 261.527344 279.753906 261.757812 C 274.699219 264.222656 280.066406 243.082031 280.066406 243.082031 C 276.789062 240.671875 272.707031 253.277344 272.707031 253.277344 C 272.867188 264.019531 261.707031 267.328125 261.707031 267.328125 C 258.800781 274.066406 253.230469 277.945312 253.230469 277.945312 C 247.773438 283.386719 242.070312 283.558594 242.070312 283.558594 C 229.773438 292.578125 221.679688 286.835938 222.035156 285.449219 C 219.65625 280.898438 228.367188 277.617188 228.367188 277.617188 C 227.832031 270.117188 237.671875 270.105469 237.671875 270.105469 C 234.738281 261.070312 243.015625 259.765625 243.6875 260.296875 C 239.808594 253.753906 244.578125 248.550781 244.578125 248.550781 C 245.855469 246.363281 240.367188 247.019531 239.484375 247.386719 C 228.242188 252.050781 224.640625 242.0625 224.640625 242.0625 C 220.746094 243.648438 220.773438 243.046875 219.1875 242.683594 C 203.578125 239.117188 221.917969 228.4375 221.917969 228.4375 C 222.066406 226.671875 219.601562 224.390625 221.039062 221.214844 C 222.484375 218.023438 227.847656 213.933594 232.746094 213.046875 C 234.058594 212.808594 233.984375 211.695312 233.5 210.46875 Z M 233.5 210.46875 " fill-opacity="1" fill-rule="evenodd"/></g><path fill="#d3ef0a" d="M 151.929688 185.136719 L 151.609375 211.175781 L 192.527344 211.21875 L 192.429688 184.902344 L 171.734375 170.332031 Z M 151.929688 185.136719 " fill-opacity="1" fill-rule="evenodd"/><path stroke-linecap="round" transform="matrix(0.745275, 0, 0, 0.745732, -82.373047, 16.513893)" fill="none" stroke-linejoin="round" d="M 312.995349 225.299974 L 341.041837 203.891695 L 370.859903 225.73474 " stroke="#0e6d07" stroke-width="5.03" stroke-opacity="1" stroke-miterlimit="1.5"/><path stroke-linecap="square" transform="matrix(0.745275, 0, 0, 0.745732, -113.705892, 14.827122)" fill-opacity="1" fill="#3296ec" fill-rule="evenodd" stroke-linejoin="miter" d="M 287.544423 240.196268 L 296.538587 257.660228 L 321.896261 257.65499 L 313.195612 240.222459 Z M 287.544423 240.196268 " stroke="#ffffff" stroke-width="1.04" stroke-opacity="1" stroke-miterlimit="1.5"/><path stroke-linecap="square" transform="matrix(0.745275, 0, 0, 0.745732, -114.836486, 13.115818)" fill="none" stroke-linejoin="miter" d="M 298.055604 242.637732 L 306.74577 259.782166 " stroke="#ffffff" stroke-width="1.04" stroke-opacity="1" stroke-miterlimit="1.5"/><path stroke-linecap="square" transform="matrix(0.745275, 0, 0, 0.745732, -114.836486, 13.115818)" fill="none" stroke-linejoin="miter" d="M 306.237358 242.637732 L 315.346833 259.782166 " stroke="#ffffff" stroke-width="1.04" stroke-opacity="1" stroke-miterlimit="1.5"/><path stroke-linecap="square" transform="matrix(0.745275, 0, 0, 0.745732, -114.836486, 13.115818)" fill="none" stroke-linejoin="miter" d="M 293.804865 251.212568 L 318.617438 251.055424 " stroke="#ffffff" stroke-width="1.04" stroke-opacity="1" stroke-miterlimit="1.5"/><path fill="#ffffff" d="M 111.992188 207 L 111.992188 210.320312 L 110.210938 210.320312 L 110.210938 207 Z M 111.992188 207 " fill-opacity="1" fill-rule="evenodd"/><path stroke-linecap="square" transform="matrix(0.421374, 0, 0, 0.168061, -58.162052, 54.889948)" fill-opacity="1" fill="#ffffff" fill-rule="evenodd" stroke-linejoin="miter" d="M 510.907556 797.495331 L 548.081334 797.495331 L 548.081334 872.80272 L 510.907556 872.80272 Z M 510.907556 797.495331 " stroke="#0e6d07" stroke-width="2.42" stroke-opacity="1" stroke-miterlimit="1.5"/><path fill="#ffffff" d="M 121.621094 206.964844 L 121.621094 210.285156 L 119.839844 210.285156 L 119.839844 206.964844 Z M 121.621094 206.964844 " fill-opacity="1" fill-rule="evenodd"/><path stroke-linecap="square" transform="matrix(0.745275, 0, 0, 0.745732, -1297.613934, -992.533303)" fill="none" stroke-linejoin="miter" d="M 1947.840224 1606.461806 L 2009.080211 1606.278471 " stroke="#ffffff" stroke-width="1.46" stroke-opacity="1" stroke-miterlimit="1.5"/><path stroke-linecap="square" transform="matrix(0.745275, 0, 0, 0.745732, -1297.77039, -988.558423)" fill="none" stroke-linejoin="miter" d="M 1947.840501 1606.458825 L 2009.080487 1606.280728 " stroke="#ffffff" stroke-width="1.46" stroke-opacity="1" stroke-miterlimit="1.5"/><path fill="#ffffff" d="M 155.582031 202.636719 L 154.503906 203.980469 L 154.503906 210.890625 L 156.691406 210.839844 L 156.617188 204.023438 Z M 155.582031 202.636719 " fill-opacity="1" fill-rule="evenodd"/><path fill="#ffffff" d="M 159.199219 202.636719 L 158.117188 203.980469 L 158.117188 210.890625 L 160.308594 210.839844 L 160.234375 204.023438 Z M 159.199219 202.636719 " fill-opacity="1" fill-rule="evenodd"/><path fill="#ffffff" d="M 162.789062 202.636719 L 161.707031 203.980469 L 161.707031 210.890625 L 163.898438 210.839844 L 163.824219 204.023438 Z M 162.789062 202.636719 " fill-opacity="1" fill-rule="evenodd"/><path fill="#ffffff" d="M 166.277344 202.636719 L 165.195312 203.980469 L 165.195312 210.890625 L 167.386719 210.839844 L 167.3125 204.023438 Z M 166.277344 202.636719 " fill-opacity="1" fill-rule="evenodd"/><path fill="#ffffff" d="M 169.855469 202.636719 L 168.773438 203.980469 L 168.773438 210.890625 L 170.964844 210.839844 L 170.890625 204.023438 Z M 169.855469 202.636719 " fill-opacity="1" fill-rule="evenodd"/><path fill="#ffffff" d="M 173.566406 202.636719 L 172.484375 203.980469 L 172.484375 210.890625 L 174.675781 210.839844 L 174.601562 204.023438 Z M 173.566406 202.636719 " fill-opacity="1" fill-rule="evenodd"/><path fill="#ffffff" d="M 177.277344 202.636719 L 176.195312 203.980469 L 176.195312 210.890625 L 178.386719 210.839844 L 178.3125 204.023438 Z M 177.277344 202.636719 " fill-opacity="1" fill-rule="evenodd"/><path fill="#ffffff" d="M 180.988281 202.636719 L 179.910156 203.980469 L 179.910156 210.890625 L 182.101562 210.839844 L 182.023438 204.023438 Z M 180.988281 202.636719 " fill-opacity="1" fill-rule="evenodd"/><path fill="#ffffff" d="M 184.699219 202.636719 L 183.621094 203.980469 L 183.621094 210.890625 L 185.8125 210.839844 L 185.738281 204.023438 Z M 184.699219 202.636719 " fill-opacity="1" fill-rule="evenodd"/><path fill="#ffffff" d="M 188.410156 202.636719 L 187.332031 203.980469 L 187.332031 210.890625 L 189.523438 210.839844 L 189.449219 204.023438 Z M 188.410156 202.636719 " fill-opacity="1" fill-rule="evenodd"/><path fill="#ffffff" d="M 192.117188 202.636719 L 191.035156 203.980469 L 191.035156 210.890625 L 193.226562 210.839844 L 193.152344 204.023438 Z M 192.117188 202.636719 " fill-opacity="1" fill-rule="evenodd"/><path fill="#ffffff" d="M 195.828125 202.636719 L 194.746094 203.980469 L 194.746094 210.890625 L 196.9375 210.839844 L 196.863281 204.023438 Z M 195.828125 202.636719 " fill-opacity="1" fill-rule="evenodd"/><path fill="#ffffff" d="M 199.539062 202.636719 L 198.457031 203.980469 L 198.457031 210.890625 L 200.648438 210.839844 L 200.574219 204.023438 Z M 199.539062 202.636719 " fill-opacity="1" fill-rule="evenodd"/><path fill="#007001" d="M 235.089844 118.078125 C 235.089844 118.078125 237.363281 118.347656 236.917969 140.648438 C 236.894531 141.90625 235.855469 142.90625 234.597656 142.878906 C 233.339844 142.855469 232.339844 141.8125 232.363281 140.554688 C 232.808594 118.257812 235.089844 118.078125 235.089844 118.078125 Z M 235.089844 118.078125 " fill-opacity="1" fill-rule="evenodd"/><path fill="#d1c4c4" d="M 235.09375 145.605469 L 235.066406 142.285156 L 234.246094 142.292969 L 234.273438 145.613281 Z M 235.09375 145.605469 " fill-opacity="1" fill-rule="evenodd"/><path fill="#d1c4c4" d="M 239.042969 149.484375 L 235.96875 148.238281 L 236.277344 147.480469 L 239.351562 148.722656 Z M 239.042969 149.484375 " fill-opacity="1" fill-rule="evenodd"/><path fill="#d1c4c4" d="M 229.855469 149.484375 L 232.933594 148.238281 L 232.625 147.480469 L 229.550781 148.722656 Z M 229.855469 149.484375 " fill-opacity="1" fill-rule="evenodd"/><path fill="#007001" d="M 261.640625 158.128906 C 261.640625 158.128906 260.582031 160.164062 239.890625 151.875 C 238.722656 151.40625 238.15625 150.078125 238.625 148.910156 C 239.089844 147.742188 240.417969 147.171875 241.585938 147.640625 C 262.277344 155.929688 261.640625 158.128906 261.640625 158.128906 Z M 261.640625 158.128906 " fill-opacity="1" fill-rule="evenodd"/><path fill="#007001" d="M 207.167969 158.273438 C 207.167969 158.273438 206.53125 156.074219 227.222656 147.785156 C 228.390625 147.316406 229.71875 147.886719 230.1875 149.054688 C 230.652344 150.222656 230.085938 151.550781 228.917969 152.019531 C 208.222656 160.304688 207.167969 158.273438 207.167969 158.273438 Z M 207.167969 158.273438 " fill-opacity="1" fill-rule="evenodd"/><path stroke-linecap="square" transform="matrix(0.744084, 0, 0, 0.744541, -40.526381, 16.968939)" fill-opacity="1" fill="#d0f001" fill-rule="nonzero" stroke-linejoin="miter" d="M 373.013943 174.81392 C 373.013943 175.233642 372.935197 175.637624 372.772455 176.025867 C 372.609713 176.41411 372.383974 176.755134 372.084739 177.054186 C 371.790753 177.353238 371.44427 177.578838 371.055789 177.74148 C 370.672558 177.904123 370.268328 177.98282 369.848348 177.98282 C 369.428369 177.98282 369.024139 177.904123 368.635658 177.74148 C 368.247177 177.578838 367.905943 177.353238 367.606708 177.054186 C 367.307473 176.755134 367.081734 176.41411 366.918992 176.025867 C 366.761499 175.637624 366.677504 175.233642 366.677504 174.81392 C 366.677504 174.394198 366.761499 173.990216 366.918992 173.601973 C 367.081734 173.21373 367.307473 172.872706 367.606708 172.573654 C 367.905943 172.279849 368.247177 172.049002 368.635658 171.891606 C 369.024139 171.728964 369.428369 171.650266 369.848348 171.650266 C 370.268328 171.650266 370.672558 171.728964 371.055789 171.891606 C 371.44427 172.049002 371.790753 172.279849 372.084739 172.573654 C 372.383974 172.872706 372.609713 173.21373 372.772455 173.601973 C 372.935197 173.990216 373.013943 174.394198 373.013943 174.81392 Z M 373.013943 174.81392 " stroke="#007001" stroke-width="1.04" stroke-opacity="1" stroke-miterlimit="1.5"/><path fill="#d3ef0a" d="M 140.105469 159.527344 L 152.984375 159.550781 C 153.085938 158.746094 152.378906 156.523438 153.894531 152.777344 C 154.652344 150.898438 156.3125 148.804688 158.222656 145.976562 C 158.222656 145.976562 161.539062 142.402344 161.636719 136.925781 C 161.738281 131.222656 158.8125 121.730469 146.722656 120.917969 C 146.722656 120.917969 142.273438 120.617188 138.605469 123 C 132.421875 127.019531 126.355469 137.636719 136.558594 148.382812 C 139.382812 151.878906 140.277344 155.679688 140.105469 159.527344 Z M 140.105469 159.527344 " fill-opacity="1" fill-rule="evenodd"/><path fill="#058200" d="M 142.269531 170.441406 L 151.054688 170.429688 C 151.054688 171.992188 149.089844 173.261719 146.664062 173.265625 C 144.238281 173.265625 142.269531 172.003906 142.269531 170.441406 Z M 142.269531 170.441406 " fill-opacity="1" fill-rule="evenodd"/><path fill="#058200" d="M 151.015625 126.996094 L 138.898438 141.507812 L 144.738281 141.695312 L 141.699219 151.363281 L 154.070312 136.9375 L 148.257812 136.605469 Z M 151.015625 126.996094 " fill-opacity="1" fill-rule="evenodd"/><path fill="#058200" d="M 153.734375 162.421875 C 153.734375 162.96875 153.289062 163.410156 152.742188 163.410156 L 140.289062 163.410156 C 139.742188 163.410156 139.296875 162.96875 139.296875 162.421875 C 139.296875 161.871094 139.742188 161.429688 140.289062 161.429688 L 152.742188 161.429688 C 153.289062 161.429688 153.734375 161.871094 153.734375 162.421875 Z M 153.734375 162.421875 " fill-opacity="1" fill-rule="evenodd"/><path fill="#058200" d="M 153.734375 165.699219 C 153.734375 166.246094 153.289062 166.691406 152.742188 166.691406 L 140.289062 166.691406 C 139.742188 166.691406 139.296875 166.246094 139.296875 165.699219 C 139.296875 165.152344 139.742188 164.707031 140.289062 164.707031 L 152.742188 164.707031 C 153.289062 164.707031 153.734375 165.152344 153.734375 165.699219 Z M 153.734375 165.699219 " fill-opacity="1" fill-rule="evenodd"/><path fill="#058200" d="M 153.734375 168.78125 C 153.734375 169.328125 153.289062 169.773438 152.742188 169.773438 L 140.289062 169.773438 C 139.742188 169.773438 139.296875 169.328125 139.296875 168.78125 C 139.296875 168.234375 139.742188 167.789062 140.289062 167.789062 L 152.742188 167.789062 C 153.289062 167.789062 153.734375 168.234375 153.734375 168.78125 Z M 153.734375 168.78125 " fill-opacity="1" fill-rule="evenodd"/></svg>