<svg xmlns="http://www.w3.org/2000/svg" width="120" height="120"><g><text style="line-height:125.99999905%;-inkscape-font-specification:Segoe UI" x="65.06" y="102.738" font-size="14" letter-spacing="0" word-spacing="0" fill="#dc322f" font-family="Segoe UI" transform="translate(-27.671 -57.469)"><tspan x="65.06" y="102.738">olitical</tspan></text><text style="line-height:125.99999905%;-inkscape-font-specification:Segoe UI" x="65.06" y="131.19" font-size="14" letter-spacing="0" word-spacing="0" fill="#b58900" font-family="Segoe UI" transform="translate(-27.671 -57.469)"><tspan x="65.06" y="131.19">error</tspan></text><text style="line-height:125.99999905%;-inkscape-font-specification:Segoe UI" x="65.06" y="160.647" font-size="14" letter-spacing="0" word-spacing="0" fill="#859900" font-family="Segoe UI" transform="translate(-27.671 -57.469)"><tspan x="65.06" y="160.647">cale</tspan></text><text style="line-height:125.99999905%;-inkscape-font-specification:Segoe UI" x="75.714" y="134.862" font-size="40" letter-spacing="0" word-spacing="0" font-family="Segoe UI" transform="translate(-27.671 -57.469)"/><text style="line-height:125.99999905%;-inkscape-font-specification:Segoe UI Bold" x="44.989" y="131.354" font-size="40" font-weight="bold" letter-spacing="0" word-spacing="0" fill="#b58900" font-family="Segoe UI" transform="translate(-27.671 -57.469)"><tspan x="44.989" y="131.354">T</tspan></text><text style="line-height:125.99999905%;-inkscape-font-specification:Segoe UI Bold" x="43.797" y="160.322" font-size="40" font-weight="bold" letter-spacing="0" word-spacing="0" fill="#859900" font-family="Segoe UI" transform="translate(-27.671 -57.469)"><tspan x="43.797" y="160.322">S</tspan></text><path d="M5.479 118.787c.226-1.07.573-2.711.364-3.767-.113-.545-.117-.646-.038-1.087.282-1.582.283-2.451.001-4.005-.088-.492-.178-.956-.2-1.035-.038-.13-.018-.15.205-.157l.634-.024 1.497-.062 1.121-.043.448-.234.453-.234-.544-.019c-.299-.011-.92.011-1.373.048-.454.038-1.064.067-1.364.067-.523 0-.545-.002-.444-.119.13-.144.138-.387.014-.434-.073-.027-.066-.058.034-.157.153-.153.16-.308.014-.42-.07-.053-.088-.103-.048-.133l.148-.162c.077-.098.078-.131-.018-.238-.103-.114-.104-.129-.003-.224.057-.057.105-.132.105-.167 0-.154-.145-.315-.286-.315-.369 0-.475-.156-.148-.22.489-.094 1.154-.243 1.841-.415.68-.17 1.451-.348 1.86-.429.18-.034.634-.378.634-.477 0-.088-.487-.066-.958.043-.229.052-.616.124-.858.157-.243.034-.662.119-.93.186-.267.067-.715.17-.997.229l-.625.138c-.102.03-.111-.039-.11-.82.001-.469.03-.979.067-1.135.157-.68.07-2.537-.143-3.09-.053-.137-.03-.317.095-.834.218-1.082.305-2.239.115-3.333-.113-.545-.112-.646-.034-1.087.282-1.582.279-2.451 0-4.005-.088-.493-.178-.96-.2-1.039-.038-.131-.014-.145.21-.152l.629-.022 1.502-.062 1.116-.043.453-.238.448-.234-.544-.018c-.299-.011-.915.013-1.369.048-.454.038-1.069.067-1.368.067-.523 0-.54-.001-.439-.115.13-.144.138-.387.016-.434-.073-.028-.066-.058.034-.157.153-.153.155-.308.003-.42-.07-.054-.088-.108-.048-.138l.152-.162c.076-.098.073-.127-.022-.234-.103-.114-.105-.134-.009-.229.057-.057.105-.132.105-.167 0-.154-.145-.31-.286-.31-.369 0-.471-.161-.143-.224.489-.094 1.149-.243 1.836-.415.68-.17 1.456-.348 1.864-.429.18-.034.629-.373.629-.472 0-.088-.487-.07-.958.038-.229.053-.616.123-.858.157-.243.034-.658.119-.925.186s-.715.17-.997.229l-.625.138c-.102.028-.111-.039-.11-.82.001-.469.03-.979.067-1.135.157-.68.07-2.537-.143-3.09-.053-.137-.038-.312.09-.83.258-1.06.254-2.175.043-3.243-.113-.545-.117-.646-.038-1.087.282-1.582.283-2.451.001-4.005-.088-.493-.178-.956-.2-1.035-.038-.13-.016-.149.21-.157l.629-.024 1.502-.062 1.116-.043.448-.234.453-.234-.544-.018c-.299-.013-.915.011-1.369.048-.454.038-1.069.067-1.369.067-.523 0-.54-.004-.439-.119.13-.144.138-.382.016-.429-.073-.028-.066-.063.034-.162.153-.153.155-.303.007-.415-.07-.054-.088-.102-.048-.134l.152-.167c.077-.098.073-.127-.022-.234-.103-.114-.105-.134-.01-.229.057-.057.105-.132.105-.167 0-.154-.145-.31-.286-.31-.369 0-.475-.161-.148-.224.489-.094 1.154-.243 1.841-.415.68-.17 1.456-.348 1.864-.429.18-.034.629-.373.629-.472 0-.088-.487-.07-.958.038-.229.052-.616.123-.858.157-.243.034-.662.119-.93.186-.267.067-.715.17-.997.229l-.62.139c-.102.028-.116-.039-.115-.82.001-.469.03-.979.067-1.135.157-.68.07-2.537-.143-3.09-.053-.137-.03-.317.095-.834.218-1.082.309-2.239.119-3.333-.113-.545-.117-.646-.038-1.087.282-1.582.283-2.451.001-4.005-.088-.493-.178-.96-.2-1.04-.038-.13-.018-.145.205-.152l.629-.022 1.502-.062 1.116-.043.453-.238.448-.234-.539-.019c-.299-.013-.915.011-1.369.048-.454.038-1.074.067-1.373.067-.523 0-.54-.001-.439-.115.13-.143.138-.387.014-.434-.073-.028-.066-.058.034-.157.153-.153.155-.308.003-.42-.07-.054-.088-.103-.048-.134l.157-.167c.077-.098.073-.127-.022-.234-.103-.114-.105-.134-.003-.229.057-.057.1-.132.1-.167 0-.154-.145-.31-.286-.31-.369 0-.471-.161-.143-.224.489-.094 1.154-.243 1.841-.415.68-.17 1.451-.348 1.86-.429.18-.034.634-.373.634-.472 0-.088-.487-.07-.958.038-.229.052-.616.128-.858.162-.243.034-.662.114-.93.181-.267.067-.715.17-.997.229l-.625.138c-.102.03-.111-.039-.11-.82.001-.469.03-.979.067-1.135.157-.68.07-2.537-.143-3.09-.053-.137-.03-.312.095-.83.226-1.07.28-2.153.071-3.209-.113-.545-.117-.646-.038-1.087.282-1.582.283-2.451.001-4.005-.088-.492-.178-.96-.2-1.039-.038-.13-.018-.145.205-.153l.634-.024 1.497-.062 1.121-.043.448-.234.453-.238-.544-.02c-.299-.012-.92.012-1.373.048-.454.038-1.064.067-1.364.067-.523 0-.545-.002-.443-.115.13-.144.142-.387.019-.434-.073-.028-.071-.058.027-.157.153-.153.16-.308.014-.42-.07-.053-.088-.103-.048-.134l.148-.162c.077-.098.078-.131-.018-.238-.103-.114-.104-.134-.003-.229.057-.057.105-.132.105-.167 0-.154-.145-.31-.286-.31-.369 0-.475-.156-.148-.219.489-.094 1.154-.248 1.841-.42.68-.17 1.456-.348 1.864-.429.18-.034.629-.373.629-.472 0-.088-.487-.066-.958.043-.229.053-.616.119-.858.153-.243.034-.662.119-.93.186-.267.067-.715.17-.997.229l-.625.138c-.102.028-.111-.039-.11-.82.001-.469.03-.979.067-1.135.157-.68.07-2.533-.143-3.085-.053-.137-.03-.317.095-.834.219-1.082.305-2.244.115-3.338-.113-.545-.112-.646-.034-1.087.282-1.582.279-2.451 0-4.005-.088-.492-.174-.96-.195-1.039-.038-.13-.018-.145.205-.153l.629-.021 1.502-.062 1.116-.043.453-.234.448-.238-.544-.018c-.299-.012-.915.012-1.369.048-.454.038-1.069.072-1.369.072-.523 0-.54-.009-.439-.119.13-.143.138-.387.014-.434-.073-.027-.066-.058.034-.157.153-.153.155-.308.003-.42-.07-.053-.088-.103-.048-.134l.152-.162c.077-.098.073-.131-.022-.238-.103-.114-.1-.134-.001-.229.057-.057.101-.132.101-.167 0-.154-.145-.31-.286-.31-.369 0-.471-.156-.143-.219.489-.094 1.149-.243 1.836-.415.68-.17 1.456-.348 1.864-.429.18-.034.629-.378.629-.477l.045-.01c0-.088-.487-.066-.958.043-.229.053-.616.124-.858.157-.243.034-.658.114-.925.181-.267.067-.715.175-.997.234l-.625.138c-.102.027-.111-.039-.11-.82.001-.469.03-.983.067-1.14.157-.68.07-2.533-.143-3.085-.053-.137-.038-.317.091-.834.164-.668.203-1.03.186-1.917l-.014-.501h-1.212v.925c0 .594.034 1.093.1 1.411.113.546.102.684-.095 1.359-.155.529-.243 1.531-.32 3.562-.059 1.59-.066 1.604-.548 1.54-.896-.119-3.731-.352-3.881-.319-.22.048-.205.09.115.253.135.069.291.159.343.2.052.041.398.092.768.114.369.023 1.075.069 1.569.11l.901.076.071.224c.041.133.045.297.014.405-.03.109-.027.196.003.219.034.021.047.158.022.315-.027.173-.014.292.028.319.043.027.056.136.034.282-.027.176-.011.262.062.324.166.138.12.223-.301.586-1.139.983-2.345 2.129-2.413 2.294-.079.191-.034.448.071.448l.171-.057.224-.095c.063-.018.132-.088.157-.153.027-.064.367-.404.753-.758l1.307-1.197c.606-.554.89-.7.811-.41-.195.711-.322 1.76-.319 2.67.001.854.03 1.137.21 2.031l.205 1.035-.133.682c-.102 1.033-.207 2.069-.034 3.099.113.546.102.684-.095 1.359-.155.529-.248 1.526-.324 3.557-.059 1.59-.061 1.609-.544 1.545-.896-.119-3.736-.352-3.886-.319-.22.049-.2.09.119.252l.339.196c.052.041.398.092.768.115.369.024 1.079.074 1.574.115l.896.072.071.224c.041.133.045.301.014.41-.03.109-.022.197.014.219.034.024.043.158.019.315-.028.173-.014.287.027.315.043.027.056.141.034.286-.028.176-.011.257.062.32.166.138.125.229-.296.591-1.139.983-2.345 2.129-2.413 2.294-.079.191-.041.448.067.448l.172-.057.224-.095c.063-.017.132-.088.157-.153.027-.064.366-.409.753-.763l1.307-1.192c.606-.554.89-.7.811-.41-.195.711-.322 1.76-.32 2.67.001.854.03 1.133.21 2.027l.21 1.04-.134.682c-.188.962-.162 1.979.001 2.971.113.546.102.684-.095 1.359-.155.529-.243 1.531-.32 3.562-.059 1.59-.066 1.604-.548 1.54-.896-.119-3.731-.352-3.881-.32-.22.049-.2.09.119.253l.339.195c.052.041.398.092.768.115.369.024 1.075.074 1.569.115l.901.071.071.224c.041.133.045.297.014.405-.03.109-.028.201.003.224.034.022.047.153.022.31-.027.173-.014.292.027.32.043.028.056.136.034.281-.027.176-.011.267.062.329.166.138.125.219-.296.582-1.139.983-2.345 2.129-2.413 2.294-.079.191-.041.453.067.453l.172-.057.224-.095c.063-.019.137-.088.162-.152.028-.064.362-.409.749-.763l1.306-1.197c.606-.554.89-.695.811-.405-.195.711-.322 1.76-.32 2.67.001.854.03 1.137.21 2.031l.205 1.035-.129.682c-.102 1.033-.212 2.064-.038 3.095.113.546.102.684-.095 1.359-.155.529-.243 1.531-.319 3.562-.059 1.59-.066 1.609-.548 1.545-.896-.119-3.731-.352-3.881-.319-.22.049-.204.086.115.248.135.069.291.159.343.2.052.041.398.092.768.115.369.024 1.075.074 1.569.115l.901.071.067.224c.041.133.05.297.018.405-.03.109-.027.197.004.219.034.022.043.158.018.315-.027.173-.014.292.03.32.043.028.056.136.034.281-.028.176-.011.262.062.324.166.138.125.224-.296.587-1.139.983-2.345 2.129-2.413 2.294-.079.191-.041.453.067.453l.172-.062.224-.09c.063-.018.137-.093.162-.157.028-.064.362-.404.749-.758l1.307-1.197c.606-.554.89-.695.811-.405-.195.711-.317 1.76-.315 2.67.001.854.027 1.133.205 2.027l.21 1.04-.134.677c-.137.969-.126 2.029.038 3.004.113.546.102.684-.095 1.359-.155.529-.244 1.526-.319 3.557-.059 1.59-.066 1.609-.548 1.545-.896-.119-3.731-.352-3.881-.319-.22.049-.205.09.115.253l.343.195c.052.041.398.093.768.115.369.022 1.075.074 1.569.115l.901.071.071.224c.042.133.045.297.016.405-.03.109-.027.201.003.224.034.022.047.153.022.31-.027.173-.014.292.028.319.043.028.056.136.034.282-.028.176-.011.262.062.324.166.138.12.224-.301.587-1.139.983-2.345 2.129-2.413 2.294-.079.191-.034.453.071.453l.172-.062.224-.095c.063-.018.132-.084.157-.148.028-.064.367-.409.753-.763l1.307-1.197c.606-.554.89-.695.811-.405-.195.711-.322 1.76-.32 2.67.001.855.03 1.133.21 2.027l.205 1.039-.133.682c-.102 1.033-.212 2.064-.038 3.095.113.546.107.684-.091 1.359-.155.529-.248 1.531-.324 3.562-.059 1.59-.066 1.604-.548 1.54-.896-.119-3.731-.352-3.881-.32-.22.049-.2.09.119.253.135.069.286.159.339.2.053.041.398.092.768.115.369.022 1.079.074 1.574.115l.896.071.072.224c.042.133.045.297.016.405-.03.109-.022.197.014.219.034.024.043.158.018.315-.027.173-.014.292.03.32.043.027.056.136.034.281-.027.176-.011.262.061.324.166.138.125.224-.296.586-1.139.983-2.345 2.129-2.413 2.294-.079.191-.041.453.067.453l.172-.062.224-.095c.063-.018.132-.088.157-.152.027-.064.366-.404.753-.758l1.307-1.197c.606-.554.89-.7.811-.41-.195.711-.322 1.765-.32 2.675.001.854.03 1.133.21 2.027l.205 1.04-.128.677c-.188.962-.162 1.937.001 2.929l.418.68m1.165-113.15l-.001.043c-.079.273-.075 2.544-.191 2.804-.084-.28.018-2.657.157-2.913l.038.067zm-.105 16.16c.001.214-.005.377-.034.434-.104-.228-.173-2.233-.052-2.46l.043.053-.001.038c-.044.177.043 1.294.048 1.936zm-.091 2.995l-.003.048c-.079.273-.066 2.873-.181 3.133-.089-.279.011-2.992.152-3.247l.038.067zm-.018-7.787c.001.164-.001.284-.018.334-.11-.271-.238-2.644-.124-2.913l.043.062v.048c-.042.227.095 1.758.101 2.47zm-.071 23.971c.001.223-.001.389-.027.448-.104-.24-.173-2.327-.052-2.561l.043.034v.024l-.001.038c-.044.183.038 1.348.043 2.017zm-.062 2.823v.027l-.003.043c-.079.273-.075 2.544-.191 2.804-.084-.28.018-2.661.157-2.918l.043.043zm-.339 35.548c-.123-.867-.134-1.29-.068-2.187.1 1.143.171 1.719.068 2.187zm.281-43.578v.31c-.001.254-.011.444-.038.51-.1-.275-.134-2.654-.003-2.918l.043.067-.001.043c-.041.182.001 1.221.003 1.988zm-.052 24.219c.001.214-.001.372-.027.429-.104-.228-.177-2.228-.057-2.456l.048.053-.003.038c-.044.177.043 1.294.048 1.936zm-.091 2.966v.03l-.003.043c-.079.273-.066 2.878-.181 3.138-.089-.279.011-2.992.152-3.247l.038.038zm-.018-7.758c.001.164-.001.284-.018.334-.11-.271-.238-2.644-.124-2.913l.048.062-.001.043c-.042.227.095 1.763.101 2.475zm-.105 26.846l-.003.048c-.078.273-.07 2.539-.186 2.799-.084-.28.019-2.657.157-2.913l.038.067zm-.086-8.087v.31c-.001.254-.011.448-.038.515-.1-.275-.134-2.654-.003-2.918l.043.067-.001.043c-.041.182.001 1.216.003 1.984zm-.019 24.247c.001.214-.006.377-.034.434-.104-.228-.173-2.228-.052-2.456l.043.053-.001.038c-.044.177.043 1.289.048 1.931zm-.091 2.999l-.005.043c-.079.273-.065 2.878-.181 3.138-.089-.279.013-2.992.152-3.247l.038.067zm-.018-7.787c.001.164-.001.283-.018.334-.11-.271-.238-2.644-.124-2.913l.043.062-.001.043c-.042.227.1 1.763.105 2.475zm-.071 23.966c.001.223-.001.394-.028.453-.104-.24-.173-2.332-.052-2.565l.043.034v.022l-.001.038c-.044.183.038 1.348.043 2.017zm-.12-5.202v.305c-.001.254-.011.448-.038.515-.1-.275-.134-2.654-.006-2.918l.043.062-.001.048c-.041.182.001 1.221.005 1.988z"/><text style="line-height:125.99999905000000000%;-inkscape-font-specification:Segoe UI Bold" x="42.391" y="102.902" font-size="40" font-weight="bold" letter-spacing="0" word-spacing="0" fill="#dc322f" font-family="Segoe UI" transform="translate(-27.671 -57.469)"><tspan x="42.391" y="102.902">P</tspan></text></g></svg>